<svg width="23" height="17" viewBox="0 0 23 17" fill="none"
    xmlns="http://www.w3.org/2000/svg">
    <path d="M14.2527 7.62338C15.5001 6.36354 16.6933 5.15665 17.8876 3.94916C18.9099 2.91814 19.9322 1.8887 20.9545 0.860847C21.289 0.525962 21.6924 0.422464 22.1471 0.557488C22.6018 0.692513 22.8726 1.01788 22.9728 1.47768C23.0695 1.92498 22.9003 2.29199 22.59 2.60784C21.1722 4.037 19.7555 5.46655 18.34 6.8965C17.2905 7.95449 16.2403 9.01189 15.1893 10.0687C14.6131 10.6457 13.946 10.6486 13.3721 10.0776C12.5747 9.28452 11.7826 8.48547 10.9958 7.68048C10.9068 7.59007 10.8508 7.46694 10.7876 7.37177L4.16071 14.0611C4.25508 14.0671 4.34591 14.0772 4.43732 14.0778C5.20406 14.0778 5.97079 14.0701 6.73753 14.0825C7.24416 14.0903 7.62576 14.3383 7.83395 14.8029C8.03272 15.2466 7.96666 15.6773 7.65702 16.0556C7.54594 16.1958 7.40442 16.3084 7.24336 16.3847C7.0823 16.461 6.90601 16.499 6.72809 16.4957C4.89265 16.4999 3.05249 16.5035 1.21469 16.494C0.520496 16.4904 0.00678253 15.9586 0.00442314 15.2597C-0.00147438 13.4158 -0.00147438 11.5718 0.00442314 9.72786C0.00442314 9.02716 0.548805 8.47873 1.2082 8.48468C1.86759 8.49063 2.37599 9.01407 2.38779 9.71656C2.39899 10.4696 2.39073 11.2232 2.39073 11.9769V12.2892L2.49808 12.3593C2.56482 12.2533 2.63934 12.1525 2.72102 12.0578C5.06762 9.68681 7.41599 7.31764 9.76612 4.95025C10.3777 4.33461 11.0389 4.33342 11.6482 4.94489C12.4483 5.7483 13.2471 6.55428 14.0445 7.36285C14.1129 7.43244 14.1678 7.51809 14.2527 7.62338Z" fill="#F9294F"/>
</svg>
