<svg width="23" height="17" viewBox="0 0 23 17" fill="none" xmlns="http://www.w3.org/2000/svg">
<path d="M8.74731 9.37662C7.49989 10.6365 6.30673 11.8433 5.1124 13.0508C4.09009 14.0819 3.06777 15.1113 2.04546 16.1392C1.71105 16.474 1.30763 16.5775 0.852897 16.4425C0.398165 16.3075 0.127449 15.9821 0.0271842 15.5223C-0.0695422 15.075 0.099729 14.708 0.409961 14.3922C1.82783 12.963 3.24452 11.5334 4.66003 10.1035C5.70947 9.04551 6.7597 7.98811 7.81071 6.93131C8.38694 6.35433 9.054 6.35136 9.62787 6.92239C10.4253 7.71548 11.2174 8.51453 12.0042 9.31952C12.0932 9.40993 12.1492 9.53306 12.2124 9.62823L18.8393 2.93887C18.7449 2.93292 18.6541 2.92281 18.5627 2.92221C17.7959 2.92221 17.0292 2.92994 16.2625 2.91745C15.7558 2.90972 15.3742 2.66168 15.166 2.19712C14.9673 1.75339 15.0333 1.32273 15.343 0.944428C15.4541 0.804217 15.5956 0.69161 15.7566 0.615293C15.9177 0.538976 16.094 0.500988 16.2719 0.50426C18.1074 0.500096 19.9475 0.496527 21.7853 0.506044C22.4795 0.509613 22.9932 1.04138 22.9956 1.7403C23.0015 3.58425 23.0015 5.42819 22.9956 7.27214C22.9956 7.97284 22.4512 8.52127 21.7918 8.51532C21.1324 8.50937 20.624 7.98593 20.6122 7.28344C20.601 6.5304 20.6093 5.77676 20.6093 5.02312V4.71084L20.5019 4.64065C20.4352 4.74665 20.3607 4.84746 20.279 4.94223C17.9324 7.31319 15.584 9.68236 13.2339 12.0498C12.6223 12.6654 11.9611 12.6666 11.3518 12.0551C10.5517 11.2517 9.75291 10.4457 8.9555 9.63715C8.88709 9.56756 8.83224 9.48191 8.74731 9.37662Z" fill="#04CE00"/>
</svg>
