<svg width="25" height="25" viewBox="0 0 25 25" fill="none" xmlns="http://www.w3.org/2000/svg">
<path fill-rule="evenodd" clip-rule="evenodd" d="M3.46154 0H3.36538C2.925 0 2.54615 1.43269e-08 2.21154 0.0788401C1.69353 0.202609 1.2199 0.467361 0.843136 0.843761C0.466367 1.22016 0.201168 1.69351 0.076923 2.21137C-7.16402e-08 2.54596 0 2.92285 0 3.36513V8.17245C0 8.6128 1.4328e-08 8.99162 0.0788462 9.32621C0.202625 9.84417 0.467397 10.3178 0.843826 10.6945C1.22025 11.0712 1.69364 11.3364 2.21154 11.4607C2.54615 11.5376 2.92308 11.5376 3.36538 11.5376H8.17308C8.61346 11.5376 8.99231 11.5376 9.32692 11.4587C9.84493 11.335 10.3186 11.0702 10.6953 10.6938C11.0721 10.3174 11.3373 9.84406 11.4615 9.32621C11.5385 8.99162 11.5385 8.61472 11.5385 8.17245V3.36513C11.5385 2.92477 11.5385 2.54596 11.4596 2.21137C11.3358 1.6934 11.0711 1.21981 10.6946 0.843071C10.3182 0.466332 9.84482 0.201153 9.32692 0.0769171C8.99231 -7.16347e-08 8.61538 0 8.17308 0H3.46154ZM2.65962 1.94985C2.74231 1.93062 2.87115 1.92293 3.46154 1.92293H8.07692C8.66923 1.92293 8.79615 1.9287 8.87885 1.94985C9.0516 1.99116 9.20953 2.0795 9.33512 2.20509C9.46072 2.33068 9.54907 2.4886 9.59038 2.66133C9.60962 2.7421 9.61538 2.86901 9.61538 3.46127V8.0763C9.61538 8.66856 9.60962 8.79548 9.58846 8.87816C9.54715 9.0509 9.4588 9.20882 9.3332 9.3344C9.2076 9.45999 9.04967 9.54834 8.87692 9.58965C8.79808 9.60695 8.67115 9.61465 8.07692 9.61465H3.46154C2.86923 9.61465 2.74231 9.60888 2.65962 9.58772C2.48687 9.54642 2.32893 9.45807 2.20334 9.33248C2.07774 9.20689 1.98939 9.04898 1.94808 8.87624C1.93077 8.7974 1.92308 8.67049 1.92308 8.0763V3.46127C1.92308 2.86901 1.92885 2.7421 1.95 2.65941C1.99131 2.48667 2.07966 2.32875 2.20526 2.20317C2.33086 2.07758 2.48879 1.98923 2.66154 1.94793M16.9231 0H16.8269C16.3865 0 16.0077 1.43269e-08 15.6731 0.0788401C15.1551 0.202609 14.6814 0.467361 14.3047 0.843761C13.9279 1.22016 13.6627 1.69351 13.5385 2.21137C13.4615 2.54596 13.4615 2.92285 13.4615 3.36513V8.17245C13.4615 8.6128 13.4615 8.99162 13.5404 9.32621C13.6642 9.84417 13.9289 10.3178 14.3054 10.6945C14.6818 11.0712 15.1552 11.3364 15.6731 11.4607C16.0077 11.5376 16.3846 11.5376 16.8269 11.5376H21.6346C22.075 11.5376 22.4538 11.5376 22.7885 11.4587C23.3065 11.335 23.7801 11.0702 24.1569 10.6938C24.5336 10.3174 24.7988 9.84406 24.9231 9.32621C25 8.99162 25 8.61472 25 8.17245V3.36513C25 2.92477 25 2.54596 24.9212 2.21137C24.7974 1.6934 24.5326 1.21981 24.1562 0.843071C23.7797 0.466332 23.3064 0.201153 22.7885 0.0769171C22.4538 -7.16347e-08 22.0769 0 21.6346 0H16.9231ZM16.1212 1.94985C16.2038 1.93062 16.3327 1.92293 16.9231 1.92293H21.5385C22.1308 1.92293 22.2577 1.9287 22.3404 1.94985C22.5131 1.99116 22.6711 2.0795 22.7967 2.20509C22.9223 2.33068 23.0106 2.4886 23.0519 2.66133C23.0712 2.7421 23.0769 2.86901 23.0769 3.46127V8.0763C23.0769 8.66856 23.0692 8.79548 23.05 8.87816C23.0087 9.0509 22.9203 9.20882 22.7947 9.3344C22.6691 9.45999 22.5112 9.54834 22.3385 9.58965C22.2577 9.60888 22.1308 9.61465 21.5385 9.61465H16.9231C16.3308 9.61465 16.2038 9.60888 16.1212 9.58772C15.9484 9.54642 15.7905 9.45807 15.6649 9.33248C15.5393 9.20689 15.4509 9.04898 15.4096 8.87624C15.3923 8.7974 15.3846 8.67049 15.3846 8.0763V3.46127C15.3846 2.86901 15.3904 2.7421 15.4115 2.65941C15.4528 2.48667 15.5412 2.32875 15.6668 2.20317C15.7924 2.07758 15.9503 1.98923 16.1231 1.94793M3.36538 13.4605H8.17308C8.61346 13.4605 8.99231 13.4605 9.32692 13.5393C9.84493 13.6631 10.3186 13.9279 10.6953 14.3043C11.0721 14.6807 11.3373 15.154 11.4615 15.6719C11.5385 16.0065 11.5385 16.3834 11.5385 16.8256V21.6329C11.5385 22.0733 11.5385 22.4521 11.4596 22.7867C11.3358 23.3047 11.0711 23.7783 10.6946 24.155C10.3182 24.5317 9.84482 24.7969 9.32692 24.9212C8.99231 24.9981 8.61538 24.9981 8.17308 24.9981H3.36538C2.925 24.9981 2.54615 24.9981 2.21154 24.9192C1.69353 24.7955 1.2199 24.5307 0.843136 24.1543C0.466367 23.7779 0.201168 23.3046 0.076923 22.7867C-7.16402e-08 22.4521 0 22.0752 0 21.6329V16.8256C0 16.3853 1.4328e-08 16.0065 0.0788462 15.6719C0.202625 15.1539 0.467397 14.6803 0.843826 14.3036C1.22025 13.9268 1.69364 13.6617 2.21154 13.5374C2.54615 13.4605 2.92308 13.4605 3.36538 13.4605ZM3.46154 15.3834C2.86923 15.3834 2.74231 15.3892 2.65962 15.4104C2.48687 15.4517 2.32893 15.54 2.20334 15.6656C2.07774 15.7912 1.98939 15.9491 1.94808 16.1218C1.93077 16.2007 1.92308 16.3276 1.92308 16.9218V21.5368C1.92308 22.1291 1.92885 22.256 1.95 22.3387C1.99131 22.5114 2.07966 22.6693 2.20526 22.7949C2.33086 22.9205 2.48879 23.0088 2.66154 23.0501C2.74231 23.0694 2.86923 23.0751 3.46154 23.0751H8.07692C8.66923 23.0751 8.79615 23.0675 8.87885 23.0482C9.0516 23.0069 9.20953 22.9186 9.33512 22.793C9.46072 22.6674 9.54907 22.5095 9.59038 22.3367C9.60962 22.256 9.61538 22.1291 9.61538 21.5368V16.9218C9.61538 16.3295 9.60962 16.2026 9.58846 16.1199C9.54715 15.9472 9.4588 15.7893 9.3332 15.6637C9.2076 15.5381 9.04967 15.4497 8.87692 15.4084C8.79808 15.3911 8.67115 15.3834 8.07692 15.3834H3.46154ZM16.9231 13.4605H16.8269C16.3865 13.4605 16.0077 13.4605 15.6731 13.5393C15.1551 13.6631 14.6814 13.9279 14.3047 14.3043C13.9279 14.6807 13.6627 15.154 13.5385 15.6719C13.4615 16.0065 13.4615 16.3834 13.4615 16.8256V21.6329C13.4615 22.0733 13.4615 22.4521 13.5404 22.7867C13.6642 23.3047 13.9289 23.7783 14.3054 24.155C14.6818 24.5317 15.1552 24.7969 15.6731 24.9212C16.0077 25 16.3865 25 16.8269 25H21.6346C22.075 25 22.4538 25 22.7885 24.9212C23.3061 24.7971 23.7793 24.5322 24.1557 24.1558C24.5322 23.7794 24.7971 23.3062 24.9212 22.7886C25 22.454 25 22.0752 25 21.6349V16.8276C25 16.3872 25 16.0084 24.9212 15.6738C24.7977 15.1555 24.5331 14.6815 24.1566 14.3044C23.7802 13.9273 23.3066 13.6618 22.7885 13.5374C22.4538 13.4605 22.0769 13.4605 21.6346 13.4605H16.9231ZM16.1212 15.4104C16.2038 15.3911 16.3327 15.3834 16.9231 15.3834H21.5385C22.1308 15.3834 22.2577 15.3892 22.3404 15.4104C22.5131 15.4517 22.6711 15.54 22.7967 15.6656C22.9223 15.7912 23.0106 15.9491 23.0519 16.1218C23.0712 16.2026 23.0769 16.3295 23.0769 16.9218V21.5368C23.0769 22.1291 23.0692 22.256 23.05 22.3387C23.0087 22.5114 22.9203 22.6693 22.7947 22.7949C22.6691 22.9205 22.5112 23.0088 22.3385 23.0501C22.2577 23.0694 22.1308 23.0751 21.5385 23.0751H16.9231C16.3308 23.0751 16.2038 23.0675 16.1212 23.0482C15.9484 23.0069 15.7905 22.9186 15.6649 22.793C15.5393 22.6674 15.4509 22.5095 15.4096 22.3367C15.3923 22.2579 15.3846 22.131 15.3846 21.5368V16.9218C15.3846 16.3295 15.3904 16.2026 15.4115 16.1199C15.4528 15.9472 15.5412 15.7893 15.6668 15.6637C15.7924 15.5381 15.9503 15.4497 16.1231 15.4084" fill="white"/>
</svg>
