<svg width="30" height="34" viewBox="0 0 30 34" fill="none" xmlns="http://www.w3.org/2000/svg">
<path d="M11.413 31.0421C8.20652 30.6392 5.50272 29.2424 3.30163 26.8517C1.10054 24.4609 0 21.6404 0 18.3901C0 16.6172 0.332609 14.9722 0.997826 13.455C1.66304 11.9379 2.60761 10.6012 3.83152 9.44506L13.0435 0.5L22.2554 9.44506C23.2337 10.4121 24.0424 11.5 24.6815 12.7088C25.3207 13.9176 25.7484 15.2204 25.9647 16.6172H22.663C22.4728 15.7039 22.1538 14.8379 21.706 14.0191C21.2582 13.2004 20.6804 12.4547 19.9728 11.7821L13.0435 5.01282L6.11413 11.7821C5.16304 12.6685 4.45 13.6694 3.975 14.7847C3.5 15.9 3.26196 17.1018 3.26087 18.3901C3.26087 20.7271 4.04239 22.7821 5.60544 24.5549C7.16848 26.3278 9.10435 27.4023 11.413 27.7784V31.0421ZM15.163 23.3462L14.1848 21.13C14.8913 20.754 15.6321 20.4451 16.4071 20.2033C17.1821 19.9615 17.963 19.8407 18.75 19.8407C19.375 19.8407 19.9935 19.9148 20.6054 20.0631C21.2174 20.2114 21.8082 20.3924 22.3777 20.6062C22.8668 20.8211 23.363 21.0092 23.8663 21.1703C24.3696 21.3315 24.8924 21.4121 25.4348 21.4121C26.0598 21.4121 26.6712 21.3046 27.269 21.0897C27.8668 20.8748 28.4511 20.6197 29.0217 20.3242L30 22.5403C29.2935 22.9164 28.5533 23.2253 27.7793 23.467C27.0054 23.7088 26.2239 23.8297 25.4348 23.8297C24.8098 23.8297 24.1918 23.7561 23.581 23.6089C22.9701 23.4617 22.3788 23.2801 21.8071 23.0641C21.3179 22.8492 20.8217 22.6612 20.3185 22.5C19.8152 22.3388 19.2924 22.2582 18.75 22.2582C18.125 22.2582 17.5136 22.3657 16.9158 22.5806C16.3179 22.7955 15.7337 23.0507 15.163 23.3462ZM15.163 28.1813L14.1848 25.9652C14.8913 25.5891 15.6321 25.2802 16.4071 25.0385C17.1821 24.7967 17.963 24.6758 18.75 24.6758C19.375 24.6758 19.9935 24.7494 20.6054 24.8966C21.2174 25.0438 21.8082 25.2254 22.3777 25.4414C22.8668 25.6563 23.363 25.8443 23.8663 26.0055C24.3696 26.1667 24.8924 26.2473 25.4348 26.2473C26.0598 26.2473 26.6712 26.1398 27.269 25.9249C27.8668 25.71 28.4511 25.4548 29.0217 25.1593L30 27.3755C29.2935 27.7515 28.5533 28.0604 27.7793 28.3022C27.0054 28.544 26.2239 28.6648 25.4348 28.6648C24.8098 28.6648 24.1918 28.5912 23.581 28.444C22.9701 28.2968 22.3788 28.1152 21.8071 27.8993C21.3179 27.6844 20.8217 27.4963 20.3185 27.3352C19.8152 27.174 19.2924 27.0934 18.75 27.0934C18.125 27.0934 17.5136 27.2009 16.9158 27.4158C16.3179 27.6306 15.7337 27.8858 15.163 28.1813ZM15.163 33.0165L14.1848 30.8004C14.8913 30.4243 15.6321 30.1154 16.4071 29.8736C17.1821 29.6319 17.963 29.511 18.75 29.511C19.375 29.511 19.9935 29.5851 20.6054 29.7334C21.2174 29.8817 21.8082 30.0627 22.3777 30.2766C22.8668 30.4915 23.363 30.6795 23.8663 30.8407C24.3696 31.0018 24.8924 31.0824 25.4348 31.0824C26.0598 31.0824 26.6712 30.975 27.269 30.7601C27.8668 30.5452 28.4511 30.29 29.0217 29.9945L30 32.2106C29.2935 32.5867 28.5533 32.8956 27.7793 33.1374C27.0054 33.3791 26.2239 33.5 25.4348 33.5C24.8098 33.5 24.1918 33.4264 23.581 33.2792C22.9701 33.132 22.3788 32.9504 21.8071 32.7344C21.3179 32.5195 20.8217 32.3315 20.3185 32.1703C19.8152 32.0092 19.2924 31.9286 18.75 31.9286C18.125 31.9286 17.5136 32.036 16.9158 32.2509C16.3179 32.4658 15.7337 32.721 15.163 33.0165Z" fill="#002E1A"/>
</svg>
