<svg width="35" height="36" viewBox="0 0 35 36" fill="none"
    xmlns="http://www.w3.org/2000/svg">
    <g clip-path="url(#clip0_174_917)">
        <path fill-rule="evenodd" clip-rule="evenodd" d="M16.875 2.375C16.875 1.87772 17.0725 1.40081 17.4242 1.04917C17.7758 0.697544 18.2527 0.5 18.75 0.5C20.4076 0.5 21.9973 1.15848 23.1694 2.33058C24.3415 3.50269 25 5.0924 25 6.75C25 8.4076 24.3415 9.99731 23.1694 11.1694C21.9973 12.3415 20.4076 13 18.75 13H1.875C1.37772 13 0.900805 12.8025 0.549175 12.4508C0.197544 12.0992 0 11.6223 0 11.125C0 10.6277 0.197544 10.1508 0.549175 9.79917C0.900805 9.44754 1.37772 9.25 1.875 9.25H18.75C19.413 9.25 20.0489 8.98661 20.5178 8.51777C20.9866 8.04893 21.25 7.41304 21.25 6.75C21.25 6.08696 20.9866 5.45107 20.5178 4.98223C20.0489 4.51339 19.413 4.25 18.75 4.25C18.2527 4.25 17.7758 4.05246 17.4242 3.70083C17.0725 3.34919 16.875 2.87228 16.875 2.375ZM5 18C5 17.5027 5.19754 17.0258 5.54917 16.6742C5.90081 16.3225 6.37772 16.125 6.875 16.125H28.75C30.4076 16.125 31.9973 16.7835 33.1694 17.9556C34.3415 19.1277 35 20.7174 35 22.375C35 24.0326 34.3415 25.6223 33.1694 26.7944C31.9973 27.9665 30.4076 28.625 28.75 28.625C28.2527 28.625 27.7758 28.4275 27.4242 28.0758C27.0725 27.7242 26.875 27.2473 26.875 26.75C26.875 26.2527 27.0725 25.7758 27.4242 25.4242C27.7758 25.0725 28.2527 24.875 28.75 24.875C29.413 24.875 30.0489 24.6116 30.5178 24.1428C30.9866 23.6739 31.25 23.038 31.25 22.375C31.25 21.712 30.9866 21.0761 30.5178 20.6072C30.0489 20.1384 29.413 19.875 28.75 19.875H6.875C6.37772 19.875 5.90081 19.6775 5.54917 19.3258C5.19754 18.9742 5 18.4973 5 18ZM4.375 23C3.87772 23 3.40081 23.1975 3.04917 23.5492C2.69754 23.9008 2.5 24.3777 2.5 24.875C2.5 25.3723 2.69754 25.8492 3.04917 26.2008C3.40081 26.5525 3.87772 26.75 4.375 26.75H18.125C18.788 26.75 19.4239 27.0134 19.8928 27.4822C20.3616 27.9511 20.625 28.587 20.625 29.25C20.625 29.913 20.3616 30.5489 19.8928 31.0178C19.4239 31.4866 18.788 31.75 18.125 31.75C17.6277 31.75 17.1508 31.9475 16.7992 32.2992C16.4475 32.6508 16.25 33.1277 16.25 33.625C16.25 34.1223 16.4475 34.5992 16.7992 34.9508C17.1508 35.3025 17.6277 35.5 18.125 35.5C19.7826 35.5 21.3723 34.8415 22.5444 33.6694C23.7165 32.4973 24.375 30.9076 24.375 29.25C24.375 27.5924 23.7165 26.0027 22.5444 24.8306C21.3723 23.6585 19.7826 23 18.125 23H4.375Z" fill="white"/>
    </g>
    <defs>
        <clipPath id="clip0_174_917">
            <rect width="35" height="35" fill="white" transform="translate(0 0.5)"/>
        </clipPath>
    </defs>
</svg>
