<svg width="18" height="18" viewBox="0 0 18 18" fill="none" xmlns="http://www.w3.org/2000/svg">
<path d="M9 7.33333C9.38302 7.33333 9.76229 7.25789 10.1162 7.11132C10.47 6.96474 10.7916 6.7499 11.0624 6.47906C11.3332 6.20822 11.5481 5.88669 11.6946 5.53283C11.8412 5.17896 11.9167 4.79969 11.9167 4.41667C11.9167 4.03364 11.8412 3.65437 11.6946 3.30051C11.5481 2.94664 11.3332 2.62511 11.0624 2.35427C10.7916 2.08343 10.47 1.86859 10.1162 1.72202C9.76229 1.57544 9.38302 1.5 9 1.5C8.22645 1.5 7.48459 1.80729 6.93761 2.35427C6.39062 2.90125 6.08333 3.64312 6.08333 4.41667C6.08333 5.19021 6.39062 5.93208 6.93761 6.47906C7.48459 7.02604 8.22645 7.33333 9 7.33333ZM1.5 16V16.5H16.5V16C16.5 14.1333 16.5 13.2 16.1367 12.4867C15.8171 11.8595 15.3072 11.3496 14.68 11.03C13.9667 10.6667 13.0333 10.6667 11.1667 10.6667H6.83333C4.96667 10.6667 4.03333 10.6667 3.32 11.03C2.69282 11.3496 2.18291 11.8595 1.86333 12.4867C1.5 13.2 1.5 14.1333 1.5 16Z" stroke="#091824" stroke-width="1.66667" stroke-linecap="round" stroke-linejoin="round"/>
</svg>
