<svg width="25" height="25" viewBox="0 0 25 25" fill="none" xmlns="http://www.w3.org/2000/svg">
<path d="M0 21.0526V18.4211H3.46348L2.9597 17.9605C1.86818 16.9518 1.10202 15.8004 0.661209 14.5066C0.220403 13.2127 0 11.9079 0 10.5921C0 8.1579 0.697733 5.99211 2.0932 4.09474C3.48867 2.19737 5.30982 0.942105 7.55667 0.328947V3.09211C6.04534 3.66228 4.82788 4.63289 3.90428 6.00395C2.98069 7.375 2.51889 8.90439 2.51889 10.5921C2.51889 11.5789 2.69731 12.5386 3.05416 13.4711C3.411 14.4035 3.96725 15.264 4.72292 16.0526L5.03778 16.3816V13.1579H7.55667V21.0526H0ZM22.5756 9.21053H20.0252C19.9202 8.44298 19.6948 7.70833 19.3489 7.00658C19.0029 6.30482 18.5357 5.63596 17.9471 5L17.6322 4.67105V7.89474H15.1133V0H22.67V2.63158H19.2065L19.7103 3.09211C20.5709 4.01316 21.2322 4.98903 21.694 6.01974C22.1558 7.05044 22.4496 8.11403 22.5756 9.21053ZM17.6322 25L17.2544 23.0263C17.0025 22.9167 16.7666 22.8018 16.5466 22.6816C16.3266 22.5614 16.1008 22.4132 15.869 22.2368L14.0428 22.8289L12.7834 20.5921L14.2317 19.2763C14.1898 18.9693 14.1688 18.6842 14.1688 18.4211C14.1688 18.1579 14.1898 17.8728 14.2317 17.5658L12.7834 16.25L14.0428 14.0132L15.869 14.6053C16.0999 14.4298 16.3258 14.282 16.5466 14.1618C16.7674 14.0417 17.0034 13.9263 17.2544 13.8158L17.6322 11.8421H20.1511L20.529 13.8158C20.7809 13.9254 21.0172 14.0461 21.238 14.1776C21.4589 14.3092 21.6843 14.4737 21.9144 14.6711L23.7406 14.0132L25 16.3158L23.5516 17.6316C23.5936 17.8947 23.6146 18.1689 23.6146 18.4539C23.6146 18.739 23.5936 19.0132 23.5516 19.2763L25 20.5921L23.7406 22.8289L21.9144 22.2368C21.6835 22.4123 21.458 22.5605 21.238 22.6816C21.0181 22.8026 20.7817 22.9175 20.529 23.0263L20.1511 25H17.6322ZM18.8917 21.0526C19.5844 21.0526 20.1776 20.7952 20.6713 20.2803C21.165 19.7654 21.4114 19.1456 21.4106 18.4211C21.4097 17.6965 21.1633 17.0772 20.6713 16.5632C20.1793 16.0491 19.5861 15.7912 18.8917 15.7895C18.1973 15.7877 17.6045 16.0456 17.1133 16.5632C16.6222 17.0807 16.3753 17.7 16.3728 18.4211C16.3703 19.1421 16.6171 19.7618 17.1133 20.2803C17.6096 20.7987 18.2024 21.0561 18.8917 21.0526Z" fill="#BFBFBF"/>
</svg>
