<svg width="20" height="10" viewBox="0 0 20 10" fill="none" xmlns="http://www.w3.org/2000/svg">
<path d="M5.83337 6.66667C5.37504 6.66667 4.98282 6.50361 4.65671 6.1775C4.3306 5.85139 4.16726 5.45889 4.16671 5C4.16615 4.54111 4.32948 4.14889 4.65671 3.82333C4.98393 3.49778 5.37615 3.33444 5.83337 3.33333C6.2906 3.33222 6.6831 3.49556 7.01087 3.82333C7.33865 4.15111 7.50171 4.54333 7.50004 5C7.49837 5.45667 7.33532 5.84917 7.01087 6.1775C6.68643 6.50583 6.29393 6.66889 5.83337 6.66667ZM5.83337 10C4.44449 10 3.26393 9.51389 2.29171 8.54167C1.31949 7.56944 0.833374 6.38889 0.833374 5C0.833374 3.61111 1.31949 2.43056 2.29171 1.45833C3.26393 0.486111 4.44449 0 5.83337 0C6.76393 0 7.60782 0.229166 8.36504 0.6875C9.12226 1.14583 9.72282 1.75 10.1667 2.5H17.5L20 5L16.25 8.75L14.5834 7.5L12.9167 8.75L11.1459 7.5H10.1667C9.72226 8.25 9.12171 8.85417 8.36504 9.3125C7.60837 9.77083 6.76448 10 5.83337 10ZM5.83337 8.33333C6.61115 8.33333 7.29532 8.09722 7.88587 7.625C8.47643 7.15278 8.86865 6.55556 9.06254 5.83333H11.6667L12.875 6.6875L14.5834 5.41667L16.0625 6.5625L17.625 5L16.7917 4.16667H9.06254C8.8681 3.44444 8.47587 2.84722 7.88587 2.375C7.29587 1.90278 6.61171 1.66667 5.83337 1.66667C4.91671 1.66667 4.13199 1.99306 3.47921 2.64583C2.82643 3.29861 2.50004 4.08333 2.50004 5C2.50004 5.91667 2.82643 6.70139 3.47921 7.35417C4.13199 8.00694 4.91671 8.33333 5.83337 8.33333Z" fill="#091824"/>
</svg>
