<svg width="35" height="36" viewBox="0 0 35 36" fill="none" xmlns="http://www.w3.org/2000/svg">
<path fill-rule="evenodd" clip-rule="evenodd" d="M14.0728 6.33329L9.53594 16.5416H14.5628C15.5691 16.5416 16.2778 17.526 15.9599 18.4812L13.5449 25.7248L24.1878 15.0833H20.4399C20.1888 15.0832 19.9419 15.019 19.7226 14.8967C19.5034 14.7744 19.319 14.598 19.1871 14.3844C19.0551 14.1708 18.98 13.927 18.9688 13.6761C18.9576 13.4253 19.0107 13.1757 19.123 12.9512L22.432 6.33329H14.0728ZM11.7891 4.29163C12.0253 3.75933 12.5518 3.41663 13.1351 3.41663H24.7682C25.862 3.41663 26.5751 4.56871 26.0851 5.54871L22.7761 12.1666H27.6732C28.9857 12.1666 29.642 13.7533 28.7145 14.6808L11.283 32.1123C10.1834 33.2118 8.35177 32.0802 8.84469 30.6058L12.5605 19.4583H7.31344C7.06807 19.4583 6.82658 19.397 6.61092 19.2799C6.39526 19.1629 6.21226 18.9938 6.07854 18.7881C5.94481 18.5824 5.8646 18.3465 5.84519 18.1019C5.82578 17.8573 5.86779 17.6117 5.9674 17.3875L11.7891 4.29163Z" fill="white"/>
</svg>
