<svg width="35" height="36" viewBox="0 0 35 36" fill="none" xmlns="http://www.w3.org/2000/svg">
<path fill-rule="evenodd" clip-rule="evenodd" d="M14.0729 6.33329L9.53606 16.5416H14.5629C15.5692 16.5416 16.2779 17.526 15.96 18.4812L13.545 25.7248L24.1879 15.0833H20.44C20.1889 15.0832 19.942 15.019 19.7228 14.8967C19.5035 14.7744 19.3191 14.598 19.1872 14.3844C19.0552 14.1708 18.9801 13.927 18.9689 13.6761C18.9577 13.4253 19.0108 13.1757 19.1231 12.9512L22.4321 6.33329H14.0729ZM11.7892 4.29163C12.0254 3.75933 12.5519 3.41663 13.1352 3.41663H24.7684C25.8621 3.41663 26.5752 4.56871 26.0852 5.54871L22.7763 12.1666H27.6734C28.9859 12.1666 29.6421 13.7533 28.7146 14.6808L11.2831 32.1123C10.1836 33.2118 8.35189 32.0802 8.84481 30.6058L12.5606 19.4583H7.31356C7.06819 19.4583 6.8267 19.397 6.61105 19.2799C6.39539 19.1629 6.21238 18.9938 6.07866 18.7881C5.94493 18.5824 5.86472 18.3465 5.84531 18.1019C5.8259 17.8573 5.86791 17.6117 5.96752 17.3875L11.7892 4.29163Z" fill="#091824"/>
</svg>
