<svg width="35" height="36" viewBox="0 0 35 36" fill="none" xmlns="http://www.w3.org/2000/svg">
<path d="M30.1773 25.773C30.6987 23.8283 30.7657 21.7897 30.3731 19.815C29.9805 17.8402 29.1389 15.9823 27.9133 14.3849C26.6878 12.7875 25.1112 11.4935 23.3055 10.6029C21.4998 9.71234 19.5134 9.24915 17.5 9.24915C15.4866 9.24915 13.5002 9.71234 11.6945 10.6029C9.88883 11.4935 8.31222 12.7875 7.08667 14.3849C5.86112 15.9823 5.0195 17.8402 4.62692 19.815C4.23434 21.7897 4.30133 23.8283 4.82271 25.773" stroke="#091824" stroke-width="2.91667" stroke-linecap="round"/>
<path d="M18.6171 23.2238C19.3273 24.2592 18.8271 25.8372 17.5 26.7486C16.1729 27.6615 14.5206 27.5624 13.8104 26.5284C13.0521 25.4259 10.4358 19.2265 8.84769 15.3911C8.54873 14.6692 9.43102 14.0626 9.99977 14.6007C13.0098 17.459 17.8602 22.1213 18.6171 23.2238Z" stroke="#091824" stroke-width="2.91667"/>
<path d="M17.5 9.25V12.1667M8.21921 13.0942L10.2813 15.1563M26.7809 13.0942L24.7188 15.1563M30.1773 25.7729L27.3613 25.0175M4.82275 25.7729L7.6388 25.0175" stroke="#091824" stroke-width="2.91667" stroke-linecap="round"/>
</svg>
