<svg width="35" height="36" viewBox="0 0 35 36" fill="none" xmlns="http://www.w3.org/2000/svg">
<path d="M11.6667 7.79171C11.6667 6.24461 12.2813 4.76088 13.3752 3.66692C14.4692 2.57296 15.9529 1.95837 17.5 1.95837C19.0471 1.95837 20.5308 2.57296 21.6248 3.66692C22.7188 4.76088 23.3334 6.24461 23.3334 7.79171V15.4553C25.1169 16.6971 26.4575 18.4758 27.1601 20.5324C27.8628 22.589 27.8907 24.8161 27.2399 26.8897C26.5891 28.9633 25.2935 30.775 23.5417 32.0612C21.7899 33.3475 19.6733 34.0411 17.5 34.0411C15.3267 34.0411 13.2101 33.3475 11.4583 32.0612C9.70654 30.775 8.41095 28.9633 7.76015 26.8897C7.10934 24.8161 7.13728 22.589 7.83991 20.5324C8.54253 18.4758 9.88317 16.6971 11.6667 15.4553V7.79171ZM13.335 17.8469C12.0607 18.7337 11.1027 20.0041 10.6004 21.4732C10.0982 22.9422 10.078 24.5332 10.5427 26.0146C11.0074 27.4959 11.9328 28.7903 13.1841 29.7092C14.4355 30.6281 15.9475 31.1237 17.5 31.1237C19.0525 31.1237 20.5646 30.6281 21.8159 29.7092C23.0673 28.7903 23.9927 27.4959 24.4574 26.0146C24.9221 24.5332 24.9018 22.9422 24.3996 21.4732C23.8974 20.0041 22.9394 18.7337 21.665 17.8469L20.4167 16.9763V7.79171C20.4167 7.01816 20.1094 6.27629 19.5624 5.72931C19.0154 5.18233 18.2736 4.87504 17.5 4.87504C16.7265 4.87504 15.9846 5.18233 15.4376 5.72931C14.8906 6.27629 14.5834 7.01816 14.5834 7.79171V16.9763L13.335 17.8469ZM11.6667 23.8334H23.3334C23.3334 25.3805 22.7188 26.8642 21.6248 27.9582C20.5308 29.0521 19.0471 29.6667 17.5 29.6667C15.9529 29.6667 14.4692 29.0521 13.3752 27.9582C12.2813 26.8642 11.6667 25.3805 11.6667 23.8334Z" fill="#091824"/>
</svg>
