<svg width="21" height="34" viewBox="0 0 21 34" fill="none" xmlns="http://www.w3.org/2000/svg">
<path d="M4.66669 6.79171C4.66669 5.24461 5.28127 3.76088 6.37523 2.66692C7.46919 1.57296 8.95292 0.958374 10.5 0.958374C12.0471 0.958374 13.5308 1.57296 14.6248 2.66692C15.7188 3.76088 16.3334 5.24461 16.3334 6.79171V14.4553C18.1169 15.6971 19.4575 17.4758 20.1601 19.5324C20.8628 21.589 20.8907 23.8161 20.2399 25.8897C19.5891 27.9633 18.2935 29.775 16.5417 31.0612C14.7899 32.3475 12.6733 33.0411 10.5 33.0411C8.32672 33.0411 6.21014 32.3475 4.45834 31.0612C2.70654 29.775 1.41095 27.9633 0.760148 25.8897C0.10934 23.8161 0.137283 21.589 0.839908 19.5324C1.54253 17.4758 2.88317 15.6971 4.66669 14.4553V6.79171ZM6.33502 16.8469C5.06069 17.7337 4.10267 19.0041 3.60043 20.4732C3.09819 21.9422 3.07796 23.5332 3.54266 25.0146C4.00737 26.4959 4.93277 27.7903 6.18413 28.7092C7.43549 29.6281 8.94749 30.1237 10.5 30.1237C12.0525 30.1237 13.5646 29.6281 14.8159 28.7092C16.0673 27.7903 16.9927 26.4959 17.4574 25.0146C17.9221 23.5332 17.9018 21.9422 17.3996 20.4732C16.8974 19.0041 15.9394 17.7337 14.665 16.8469L13.4167 15.9763V6.79171C13.4167 6.01816 13.1094 5.27629 12.5624 4.72931C12.0154 4.18233 11.2736 3.87504 10.5 3.87504C9.72647 3.87504 8.98461 4.18233 8.43763 4.72931C7.89065 5.27629 7.58335 6.01816 7.58335 6.79171V15.9763L6.33502 16.8469ZM4.66669 22.8334H16.3334C16.3334 24.3805 15.7188 25.8642 14.6248 26.9582C13.5308 28.0521 12.0471 28.6667 10.5 28.6667C8.95292 28.6667 7.46919 28.0521 6.37523 26.9582C5.28127 25.8642 4.66669 24.3805 4.66669 22.8334Z" fill="white"/>
</svg>
