<svg width="190" height="190" viewBox="0 0 190 190" fill="none" xmlns="http://www.w3.org/2000/svg">
<circle cx="95" cy="95" r="95" fill="url(#paint0_linear_174_983)"/>
<g filter="url(#filter0_ddii_174_983)">
<path d="M86.5625 111.082L85.125 47.4568H105.875L104.438 111.082H86.5625ZM95.5 141.769C92.1667 141.769 89.4375 140.79 87.3125 138.832C85.2292 136.832 84.1875 134.228 84.1875 131.019C84.1875 127.853 85.2292 125.29 87.3125 123.332C89.4375 121.332 92.1667 120.332 95.5 120.332C98.8333 120.332 101.542 121.332 103.625 123.332C105.75 125.29 106.812 127.853 106.812 131.019C106.812 134.228 105.75 136.832 103.625 138.832C101.542 140.79 98.8333 141.769 95.5 141.769Z" fill="white"/>
</g>
<defs>
<filter id="filter0_ddii_174_983" x="73.1875" y="35.4568" width="52.625" height="125.312" filterUnits="userSpaceOnUse" color-interpolation-filters="sRGB">
<feFlood flood-opacity="0" result="BackgroundImageFix"/>
<feColorMatrix in="SourceAlpha" type="matrix" values="0 0 0 0 0 0 0 0 0 0 0 0 0 0 0 0 0 0 127 0" result="hardAlpha"/>
<feOffset dy="-4"/>
<feGaussianBlur stdDeviation="4"/>
<feColorMatrix type="matrix" values="0 0 0 0 1 0 0 0 0 1 0 0 0 0 1 0 0 0 0.3 0"/>
<feBlend mode="normal" in2="BackgroundImageFix" result="effect1_dropShadow_174_983"/>
<feColorMatrix in="SourceAlpha" type="matrix" values="0 0 0 0 0 0 0 0 0 0 0 0 0 0 0 0 0 0 127 0" result="hardAlpha"/>
<feOffset dx="4" dy="4"/>
<feGaussianBlur stdDeviation="7.5"/>
<feColorMatrix type="matrix" values="0 0 0 0 0.054902 0 0 0 0 0.854902 0 0 0 0 0.368627 0 0 0 0.6 0"/>
<feBlend mode="normal" in2="effect1_dropShadow_174_983" result="effect2_dropShadow_174_983"/>
<feBlend mode="normal" in="SourceGraphic" in2="effect2_dropShadow_174_983" result="shape"/>
<feColorMatrix in="SourceAlpha" type="matrix" values="0 0 0 0 0 0 0 0 0 0 0 0 0 0 0 0 0 0 127 0" result="hardAlpha"/>
<feOffset dy="4"/>
<feGaussianBlur stdDeviation="4"/>
<feComposite in2="hardAlpha" operator="arithmetic" k2="-1" k3="1"/>
<feColorMatrix type="matrix" values="0 0 0 0 0.0235294 0 0 0 0 0.145098 0 0 0 0 0.329412 0 0 0 0.1 0"/>
<feBlend mode="normal" in2="shape" result="effect3_innerShadow_174_983"/>
<feColorMatrix in="SourceAlpha" type="matrix" values="0 0 0 0 0 0 0 0 0 0 0 0 0 0 0 0 0 0 127 0" result="hardAlpha"/>
<feOffset dx="-4" dy="-4"/>
<feGaussianBlur stdDeviation="5"/>
<feComposite in2="hardAlpha" operator="arithmetic" k2="-1" k3="1"/>
<feColorMatrix type="matrix" values="0 0 0 0 1 0 0 0 0 1 0 0 0 0 1 0 0 0 1 0"/>
<feBlend mode="normal" in2="effect3_innerShadow_174_983" result="effect4_innerShadow_174_983"/>
</filter>
<linearGradient id="paint0_linear_174_983" x1="46.6739" y1="3.22968e-06" x2="134.652" y2="190" gradientUnits="userSpaceOnUse">
<stop stop-color="#C9F908"/>
<stop offset="1" stop-color="#92AA01"/>
</linearGradient>
</defs>
</svg>
